<?xml version="1.0" encoding="UTF-8" standalone="no"?>
<!-- Created with Inkscape (http://www.inkscape.org/) -->

<svg
   width="13.345618mm"
   height="13.345618mm"
   viewBox="0 0 13.345619 13.345618"
   version="1.1"
   id="svg1"
   xmlns:xlink="http://www.w3.org/1999/xlink"
   xmlns="http://www.w3.org/2000/svg"
   xmlns:svg="http://www.w3.org/2000/svg">
  <defs
     id="defs1">
    <linearGradient
       xlink:href="#linearGradient4"
       id="linearGradient5"
       x1="64.645561"
       y1="464.22729"
       x2="111.17694"
       y2="433.02097"
       gradientUnits="userSpaceOnUse"
       gradientTransform="matrix(0.26458333,0,0,0.26458333,-13.367245,-115.06107)" />
    <linearGradient
       id="linearGradient4">
      <stop
         style="stop-color:#01ec66;stop-opacity:0.69411801;"
         offset="0"
         id="stop4" />
      <stop
         style="stop-color:#235594;stop-opacity:1;"
         offset="1"
         id="stop5" />
    </linearGradient>
  </defs>
  <path
     style="fill:url(#linearGradient5);fill-opacity:1;stroke-width:0.264583"
     d="m 6.55641,13.100104 c -0.0875,-0.11832 -0.34586,-0.28539 -0.69295,-0.44807 -0.88609,-0.41528 -1.28041,-0.62898 -1.82051,-0.98659 -0.61992,-0.41047 -1.26946,-1.04731 -1.21444,-1.1907 0.0737,-0.19192 0.31943,-0.10691 0.64427,0.22284 0.17422,0.17686 0.54483,0.47301 0.82358,0.65813 0.48683,0.32331 1.60448,0.91942 1.72381,0.91942 0.0316,0 0.22281,0.0995 0.42486,0.22121 0.36636,0.22061 0.36779,0.22089 0.53476,0.10359 0.0921,-0.0647 0.55229,-0.27078 1.02268,-0.45797 1.12446,-0.44749 1.67895,-0.82262 2.23072,-1.50916 0.52727,-0.6560398 1.019201,-1.6264098 1.206831,-2.3805403 0.1314,-0.52812 0.15354,-0.57018 0.30024,-0.57018 0.14957,0 0.15731,0.0169 0.13912,0.30334 -0.0571,0.8996905 -0.806981,2.3860403 -1.638271,3.2474103 -0.58941,0.61074 -1.04247,0.87606 -2.3313,1.36527 -0.39358,0.14939 -0.64143,0.28842 -0.80774,0.4531 -0.13197,0.13066 -0.27734,0.23757 -0.32306,0.23757 -0.0457,0 -0.14588,-0.0849 -0.2226,-0.18867 z m 0.19485,-1.21316 c -0.20937,-0.21314 -0.0348,-0.43539 0.342,-0.43539 0.36199,0 1.18461,-0.26666 1.57441,-0.51037 0.88929,-0.55598 1.73564,-1.6870098 2.11172,-2.8220303 0.28184,-0.85058 0.33837,-1.28533 0.386331,-2.97116 0.0407,-1.42991 0.0629,-1.68069 0.16816,-1.90138 0.21218,-0.4447 0.40699,-0.67327 0.55574,-0.65206 0.18372,0.0262 0.21335,0.27795 0.0533,0.45317 -0.33556,0.36745 -0.35667,0.48142 -0.40069,2.16362 -0.0228,0.8711 -0.0747,1.75486 -0.11542,1.96393 C 11.0323,9.2025542 9.96742,10.807684 8.53561,11.533234 7.92585,11.842214 6.9059,12.044404 6.75123,11.886944 Z M 5.65477,11.750114 C 4.01841,11.192264 2.77177,9.5833942 2.28175,7.3970137 2.1598,6.8529237 2.1468,6.6036137 2.14629,4.7995537 c -3.1e-4,-1.09758 0.0211,-2.07585 0.0475,-2.17393 0.037,-0.13724 0.0804,-0.17373 0.18838,-0.15838 l 0.1403,0.0199 -0.0217,1.83722 c -0.0172,1.45197 -4.5e-4,1.97671 0.0797,2.50242 0.2312,1.51594 0.79309,2.6702505 1.73009,3.5541603 0.50592,0.47727 0.94279,0.74194 1.55373,0.94133 0.39344,0.1284 0.42763,0.1538 0.42763,0.31767 0,0.10398 -0.0417,0.19412 -0.10021,0.21657 -0.12087,0.0464 -0.0439,0.0616 -0.53698,-0.10645 z m 0.70989,-0.67922 C 5.59623,10.956344 5.02139,10.635944 4.32803,9.9357342 3.93777,9.5416142 3.7166,9.2524942 3.52458,8.8854442 3.217,8.2974937 2.93428,7.4745537 2.93428,7.1671837 c 0,-0.18522 0.0209,-0.21365 0.15718,-0.21365 0.1199,0 0.16629,0.0413 0.19565,0.17422 0.35225,1.59505 1.29695,2.8260305 2.54646,3.3181503 0.48994,0.19296 1.4765,0.20853 1.94717,0.0307 0.45863,-0.17326 1.1291,-0.6336098 1.42272,-0.9768398 0.21429,-0.2505 0.27186,-0.28622 0.36606,-0.22711 0.20477,0.12849 0.15857,0.27186 -0.21315,0.66157 C 8.50687,10.824844 7.43814,11.230884 6.36466,11.070864 Z M 5.96238,10.062184 C 5.57789,9.9392442 5.09552,9.6807242 4.97125,9.5309842 c -0.0905,-0.1091 -0.0315,-0.29676 0.0934,-0.29676 0.0492,0 0.20074,0.0702 0.33668,0.15602 1.66653,1.0520398 3.80718,-0.0525 4.35508,-2.2471005 0.0806,-0.32273 0.10502,-0.78664 0.11347,-2.15353 0.0115,-1.86758 0.036,-2.04137 0.38375,-2.72813 0.20218,-0.39926 0.32113,-0.49183 0.45717,-0.35578 0.0971,0.0971 0.0902,0.13328 -0.0977,0.51085 -0.33618,0.67549 -0.39604,1.12035 -0.38344,2.84966 0.009,1.28662 -0.007,1.59923 -0.10216,1.97241 C 9.59741,9.3136342 7.68213,10.612034 5.96245,10.062184 Z m -3.51607,-0.0172 C 2.35981,9.9356842 2.02949,9.0598142 1.86552,8.504974 1.568487,7.499914 1.525961,7.118474 1.485025,5.092244 1.445875,3.154444 1.444155,3.135064 1.302959,3.041404 1.136514,2.930994 1.121468,2.820084 1.257599,2.707094 c 0.07875,-0.0653 0.126278,-0.0651 0.250543,10e-4 0.316328,0.16929 0.349038,0.3625 0.350298,2.0689 0.002,2.15409 0.17846,3.29256 0.70391,4.5308502 0.2432,0.57313 0.26361,0.7740198 0.0813,0.8000698 -0.0727,0.0104 -0.16154,-0.0181 -0.19734,-0.0634 z M 6.11797,9.2718742 C 5.75376,9.1533642 5.26909,8.8343142 4.99883,8.535164 4.39255,7.864074 4.09665,7.091514 4.03652,6.022674 c -0.0389,-0.69121 0.0588,-3.47392 0.14151,-4.03091 0.0391,-0.26339 0.17592,-0.36496 0.30441,-0.22598 0.0646,0.0699 0.0683,0.29557 0.0183,1.10149 -0.0346,0.5575 -0.0662,1.61231 -0.0703,2.34404 -0.006,1.1258 0.0106,1.38885 0.10913,1.71051 0.38335,1.25094 1.1927,1.9912902 2.2386,2.0477702 0.86518,0.0467 1.4992,-0.3375302 1.93952,-1.1754702 0.38402,-0.73078 0.4885,-1.23253 0.4885,-2.34596 0,-0.82171 0.0151,-0.97519 0.0993,-1.00748 0.21503,-0.0825 0.24922,0.0841 0.24656,1.20168 -0.002,1.02448 -0.0131,1.11957 -0.17889,1.59561 -0.32372,0.92956 -0.82514,1.5900702 -1.45263,1.9134802 -0.27722,0.14289 -0.42577,0.17302 -0.93166,0.18898 -0.38927,0.0123 -0.69686,-0.0119 -0.87086,-0.0686 z M 4.37193,8.9145342 C 4.0525,8.541354 3.78819,8.010124 3.60026,7.363584 3.38773,6.632424 3.3436,5.674224 3.42858,3.636174 c 0.0519,-1.24337 0.0811,-1.52979 0.16449,-1.61322 0.0904,-0.0904 0.11184,-0.091 0.19695,-0.006 0.0839,0.0839 0.0869,0.29191 0.0246,1.70825 -0.12694,2.88541 0.0221,3.79014 0.80598,4.89138 0.11787,0.1655902 0.2143,0.3407202 0.2143,0.3891702 0,0.0718 -0.12533,0.16502 -0.22198,0.16502 -0.0118,0 -0.12028,-0.11534 -0.24094,-0.25631 z m 5.44674,-0.0239 c -0.0204,-0.0532 0.0482,-0.2791102 0.15243,-0.5019302 0.40241,-0.85992 0.44746,-1.1264 0.50511,-2.98737 0.0545,-1.75827 0.0654,-1.87088 0.2331,-2.40301 0.19159,-0.60785 0.44866,-0.89891 0.632001,-0.71557 0.0716,0.0716 0.0548,0.14609 -0.10416,0.46163 -0.305311,0.60608 -0.383821,1.16683 -0.383821,2.74118 0,1.25366 -0.0146,1.44592 -0.15082,1.98243 -0.19566,0.77083 -0.52957,1.4742002 -0.71221,1.5002602 -0.0762,0.0109 -0.15058,-0.0228 -0.17163,-0.0776 z M 6.36414,8.527934 C 5.63675,8.318614 4.94988,7.450594 4.77281,6.516914 c -0.0699,-0.36844 -0.0891,-1.83345 -0.0262,-1.99733 0.0497,-0.12962 0.25347,-0.12962 0.30321,0 0.0212,0.0551 0.0385,0.46548 0.0385,0.91193 0,0.63016 0.028,0.90178 0.12512,1.21435 0.24543,0.78976 0.78034,1.34369 1.37469,1.42357 0.50568,0.068 0.52747,0.0792 0.52747,0.27221 0,0.26205 -0.26221,0.32706 -0.7514,0.18629 z m 1.01935,-0.16531 c -0.13346,-0.0445 -0.0916,-0.31929 0.0558,-0.36607 0.20978,-0.0666 0.62292,-0.47091 0.76426,-0.74795 0.20002,-0.39208 0.30628,-1.21056 0.3673,-2.82924 0.0571,-1.51428 0.13893,-2.09516 0.36798,-2.6118 0.14205,-0.3204 0.27606,-0.44609 0.41768,-0.39175 0.13472,0.0517 0.13009,0.16812 -0.0183,0.45888 -0.26088,0.51137 -0.32819,0.94937 -0.38616,2.513 -0.0906,2.44328 -0.2054,2.96053 -0.7851,3.53696 -0.32143,0.31962 -0.62668,0.49025 -0.78352,0.43797 z M 6.47035,7.680084 C 5.92524,7.506524 5.58904,7.031504 5.43259,6.213814 c -0.12373,-0.64666 -0.12185,-3.02385 0.003,-4.07551 0.12125,-1.0196 0.19036,-1.26665 0.35431,-1.26665 0.19196,0 0.20762,0.13694 0.0886,0.77525 -0.13787,0.73958 -0.20737,3.80242 -0.0996,4.38796 0.0971,0.5272 0.36927,1.04804 0.62347,1.19292 0.28206,0.16077 0.73606,0.16055 0.95171,-5.2e-4 0.40867,-0.30511 0.64564,-1.29512 0.64938,-2.71292 0.004,-1.37797 0.17217,-2.53447 0.44943,-3.08413 0.14809,-0.29358 0.23243,-0.34613 0.35645,-0.22211 0.0886,0.0886 0.0852,0.13085 -0.0347,0.43512 -0.26881,0.68213 -0.30215,0.92988 -0.39362,2.92511 -0.0356,0.77667 -0.10637,1.573 -0.1612,1.81405 -0.24437,1.0744 -0.90712,1.56591 -1.74973,1.29763 z m 5.280411,-0.30216 c -0.0529,-0.0637 -0.0562,-0.21657 -0.012,-0.55705 0.0335,-0.25809 0.0618,-0.98603 0.0629,-1.61767 0.002,-0.94183 0.0191,-1.16261 0.097,-1.22729 0.0761,-0.0632 0.11536,-0.062 0.1972,0.006 0.0904,0.0751 0.0983,0.25244 0.0685,1.54405 -0.0185,0.8026 -0.0585,1.55887 -0.0888,1.68061 -0.059,0.23697 -0.20593,0.31452 -0.32469,0.17142 z M 6.42213,6.809854 C 6.00809,6.600324 5.88808,5.873104 5.95185,3.960214 c 0.0431,-1.29276 0.0781,-1.44354 0.31371,-1.35311 0.0911,0.0349 0.0972,0.17568 0.0576,1.32165 -0.0479,1.38787 0.0255,2.27084 0.20526,2.47039 0.18174,0.2017 0.57103,0.11617 0.72752,-0.15983 0.0562,-0.0992 0.0918,-0.66813 0.11967,-1.91496 0.0274,-1.22549 0.0718,-1.94567 0.14376,-2.3296 0.19471,-1.0396 0.41588,-1.47085 0.63958,-1.24715 0.0852,0.0852 0.0823,0.13029 -0.0259,0.41509 -0.25591,0.67349 -0.33182,1.31985 -0.37503,3.19334 -0.0401,1.73717 -0.0473,1.81535 -0.18969,2.06465 -0.0814,0.14252 -0.22815,0.30644 -0.32607,0.36428 -0.20949,0.12375 -0.60136,0.13565 -0.8202,0.0249 z m -3.599,-0.40627 c -0.026,-0.0634 -0.0457,-0.97056 -0.0439,-2.01588 0.003,-1.9783 0.0333,-2.21842 0.27021,-2.17275 0.0974,0.0188 0.1066,0.20436 0.1066,2.14197 v 2.12141 l -0.14283,0.0203 c -0.0918,0.013 -0.15971,-0.0209 -0.19006,-0.095 z m 3.8102,-0.69107 c -0.0777,-0.30964 0.0249,-3.49867 0.13332,-4.14395 0.18423,-1.09637 0.38994,-1.59123 0.62411,-1.50137 0.12972,0.0498 0.13343,0.21387 0.0114,0.50586 -0.25835,0.61831 -0.35782,1.48541 -0.4049,3.52957 -0.04,1.73623 -0.0406,1.74225 -0.18044,1.76214 -0.10755,0.0153 -0.15039,-0.0202 -0.18352,-0.15225 z m -1.85516,-1.8236 c -0.059,-0.0711 -0.0617,-0.31675 -0.0118,-1.06386 0.0851,-1.27374 0.10838,-1.38323 0.29443,-1.38323 0.0807,0 0.15868,0.0214 0.1733,0.0475 0.0146,0.0261 -0.0193,0.58879 -0.0755,1.25035 -0.0846,0.99699 -0.1193,1.20615 -0.20289,1.22224 -0.0555,0.0107 -0.13536,-0.0222 -0.17755,-0.073 z m 4.44904,-0.0129 c -0.12282,-0.32006 0.22939,-1.82765 0.49312,-2.11072 0.1309,-0.14052 0.30942,-0.11593 0.30942,0.0426 0,0.0545 -0.0727,0.28093 -0.16163,0.50313 -0.0889,0.2222 -0.19342,0.65206 -0.23228,0.95525 -0.0388,0.30319 -0.0979,0.58689 -0.13121,0.63044 -0.0841,0.11 -0.23149,0.099 -0.27742,-0.0207 z m -3.1437,-1.69387 c -0.0768,-0.20007 0.24591,-1.60377 0.38056,-1.65544 0.1424,-0.0546 0.28673,0.091 0.24319,0.24549 -0.0203,0.0721 -0.0921,0.40938 -0.15946,0.74947 -0.0674,0.34008 -0.13991,0.64655 -0.16122,0.68103 -0.0563,0.0911 -0.26569,0.0769 -0.30307,-0.0205 z"
     id="fprint" />
  <circle
     style="display:none;opacity:0.5;fill:#000000;stroke-width:0.258462"
     id="circle"
     cx="6.6728091"
     cy="6.6728091"
     r="6.6728091" />
</svg>
